<svg width="436" height="190" viewBox="0 0 436 190" fill="none" xmlns="http://www.w3.org/2000/svg">
<path d="M107.514 152.934C103.468 152.934 99.9169 151.971 96.8623 150.045C93.8272 148.119 91.4536 145.424 89.7415 141.961C88.0488 138.498 87.2025 134.451 87.2025 129.82C87.2025 125.151 88.0488 121.075 89.7415 117.592C91.4536 114.11 93.8272 111.405 96.8623 109.479C99.9169 107.553 103.468 106.59 107.514 106.59C111.561 106.59 115.102 107.553 118.137 109.479C121.192 111.405 123.566 114.11 125.258 117.592C126.97 121.075 127.826 125.151 127.826 129.82C127.826 134.451 126.97 138.498 125.258 141.961C123.566 145.424 121.192 148.119 118.137 150.045C115.102 151.971 111.561 152.934 107.514 152.934ZM107.514 146.747C110.588 146.747 113.118 145.959 115.102 144.383C117.087 142.807 118.556 140.735 119.509 138.167C120.462 135.599 120.939 132.816 120.939 129.82C120.939 126.824 120.462 124.032 119.509 121.444C118.556 118.857 117.087 116.765 115.102 115.17C113.118 113.575 110.588 112.777 107.514 112.777C104.44 112.777 101.911 113.575 99.9266 115.17C97.9421 116.765 96.4732 118.857 95.5199 121.444C94.5665 124.032 94.0899 126.824 94.0899 129.82C94.0899 132.816 94.5665 135.599 95.5199 138.167C96.4732 140.735 97.9421 142.807 99.9266 144.383C101.911 145.959 104.44 146.747 107.514 146.747ZM138.34 152V107.174H145.227V152H138.34ZM141.842 99.7025C140.5 99.7025 139.342 99.2453 138.369 98.3309C137.416 97.4164 136.939 96.3172 136.939 95.0331C136.939 93.749 137.416 92.6497 138.369 91.7353C139.342 90.8209 140.5 90.3637 141.842 90.3637C143.184 90.3637 144.332 90.8209 145.286 91.7353C146.258 92.6497 146.745 93.749 146.745 95.0331C146.745 96.3172 146.258 97.4164 145.286 98.3309C144.332 99.2453 143.184 99.7025 141.842 99.7025ZM164.729 125.034V152H157.842V107.174H164.496V114.178H165.08C166.13 111.901 167.726 110.073 169.866 108.691C172.006 107.29 174.769 106.59 178.154 106.59C181.189 106.59 183.845 107.212 186.121 108.458C188.398 109.683 190.168 111.551 191.433 114.061C192.697 116.551 193.33 119.703 193.33 123.517V152H186.442V123.983C186.442 120.462 185.528 117.719 183.699 115.754C181.87 113.769 179.36 112.777 176.169 112.777C173.971 112.777 172.006 113.254 170.274 114.207C168.562 115.16 167.21 116.551 166.218 118.38C165.226 120.209 164.729 122.427 164.729 125.034ZM206.849 92.2314H215.487L235.799 141.844H236.5L256.812 92.2314H265.45V152H258.68V106.59H258.096L239.418 152H232.881L214.203 106.59H213.62V152H206.849V92.2314ZM297.822 152.934C293.503 152.934 289.777 151.981 286.645 150.074C283.532 148.148 281.129 145.463 279.437 142.019C277.763 138.556 276.927 134.529 276.927 129.937C276.927 125.345 277.763 121.299 279.437 117.797C281.129 114.275 283.483 111.532 286.499 109.567C289.534 107.582 293.075 106.59 297.122 106.59C299.457 106.59 301.762 106.979 304.039 107.757C306.315 108.535 308.387 109.8 310.255 111.551C312.123 113.283 313.611 115.579 314.72 118.439C315.829 121.299 316.383 124.82 316.383 129.003V131.921H281.83V125.968H309.379C309.379 123.439 308.873 121.182 307.862 119.197C306.869 117.213 305.449 115.647 303.601 114.499C301.772 113.351 299.612 112.777 297.122 112.777C294.379 112.777 292.005 113.458 290.001 114.82C288.017 116.162 286.489 117.913 285.419 120.073C284.349 122.232 283.814 124.548 283.814 127.019V130.988C283.814 134.373 284.398 137.243 285.565 139.597C286.752 141.932 288.396 143.712 290.497 144.938C292.599 146.144 295.04 146.747 297.822 146.747C299.632 146.747 301.266 146.494 302.725 145.988C304.204 145.463 305.478 144.685 306.548 143.653C307.618 142.603 308.445 141.299 309.029 139.743L315.683 141.611C314.983 143.867 313.805 145.852 312.152 147.564C310.498 149.257 308.455 150.58 306.023 151.533C303.591 152.467 300.858 152.934 297.822 152.934ZM337.016 152L323.358 107.174H330.596L340.285 141.494H340.752L350.324 107.174H357.679L367.134 141.377H367.601L377.29 107.174H384.528L370.87 152H364.099L354.293 117.563H353.593L343.787 152H337.016ZM425.385 117.213L419.198 118.964C418.809 117.933 418.235 116.931 417.476 115.958C416.737 114.966 415.725 114.149 414.441 113.506C413.157 112.864 411.513 112.543 409.509 112.543C406.766 112.543 404.48 113.176 402.651 114.44C400.842 115.686 399.937 117.271 399.937 119.197C399.937 120.909 400.559 122.262 401.805 123.254C403.05 124.246 404.995 125.073 407.641 125.735L414.295 127.369C418.303 128.342 421.29 129.83 423.255 131.834C425.22 133.818 426.202 136.377 426.202 139.509C426.202 142.077 425.463 144.373 423.984 146.397C422.525 148.42 420.482 150.015 417.856 151.183C415.229 152.35 412.175 152.934 408.692 152.934C404.12 152.934 400.336 151.942 397.339 149.957C394.343 147.973 392.446 145.074 391.649 141.26L398.186 139.626C398.808 142.039 399.985 143.848 401.717 145.054C403.468 146.261 405.754 146.864 408.575 146.864C411.785 146.864 414.334 146.183 416.221 144.821C418.128 143.439 419.081 141.786 419.081 139.86C419.081 138.303 418.537 136.999 417.447 135.949C416.358 134.879 414.684 134.081 412.428 133.556L404.956 131.805C400.851 130.832 397.836 129.324 395.909 127.281C394.003 125.219 393.049 122.641 393.049 119.548C393.049 117.018 393.76 114.781 395.18 112.835C396.62 110.89 398.575 109.362 401.046 108.253C403.536 107.144 406.357 106.59 409.509 106.59C413.945 106.59 417.428 107.563 419.957 109.508C422.506 111.454 424.315 114.022 425.385 117.213Z" fill="black"/>
<path fill-rule="evenodd" clip-rule="evenodd" d="M76.6926 0.013001C77.8174 0.217072 78.3287 1.84964 78.5332 5.82901C78.84 11.441 78.84 11.441 83.1348 12.9715C86.2025 14.0939 87.9408 15.5224 89.4747 18.2773C90.5995 20.4201 93.1559 22.8689 95.0988 23.8893C98.2688 25.5218 98.6778 26.2361 98.9846 30.3175C99.0868 32.9704 98.6778 35.8274 97.8597 36.9498C97.0417 38.0722 93.974 40.2149 90.9063 41.6434C87.8386 43.0719 85.0776 45.0106 84.5663 45.9289C84.1573 46.9492 84.5664 51.949 85.4867 57.0507C86.7137 64.4993 86.816 67.4583 85.9979 70.9275C85.3844 73.2743 83.5438 76.7435 81.9077 78.5802C80.2716 80.3148 75.67 83.6819 71.682 85.9267C66.1601 88.9878 64.115 90.7224 63.3992 93.0692C62.7857 94.8038 62.3766 102.252 62.3766 123.17L65.9556 126.741C67.8985 128.679 69.9436 132.047 70.5572 134.189C71.0685 136.23 71.5797 138.985 71.5797 142.556H49.7991C29.9612 142.556 27.8138 142.352 24.8484 140.516C23.0078 139.393 20.6559 138.475 19.6333 138.475C18.0994 138.475 17.9972 139.087 18.713 144.291C19.2243 147.658 20.9626 152.76 22.8033 156.229C24.8484 160.004 28.0184 163.678 31.1883 166.228C33.9492 168.371 38.8576 171.126 41.9253 172.351C45.402 173.677 51.0261 174.595 56.7525 174.901C65.2398 175.31 66.3646 175.208 70.8639 172.759C73.5226 171.33 76.2836 170.106 76.8971 170.106C77.6129 170.106 79.0445 170.922 80.0671 171.942C81.0896 172.861 81.9077 174.799 81.8054 176.228C81.8054 177.86 80.3738 180.105 78.0219 182.452C75.8745 184.391 72.8068 186.636 71.0685 187.35C69.3301 188.064 65.0353 188.88 61.3541 189.186C57.0593 189.595 51.6397 189.186 46.0155 188.064C41.2095 187.146 34.5628 185.003 31.1883 183.472C27.8138 181.84 22.701 178.881 19.9401 176.738C17.0769 174.595 12.8844 170.514 10.6347 167.657C8.2828 164.8 5.62412 160.821 4.60155 158.882C3.57899 156.943 2.14739 153.066 1.43159 150.209C0.613541 147.454 0 141.74 0 137.659C0 133.679 0.511284 125.823 1.12482 120.415C1.73837 114.905 3.0677 106.538 4.09027 101.742C5.2151 96.9465 7.15797 89.804 8.48731 85.9267C9.81665 82.0494 12.4753 75.8252 14.2137 72.1519C16.0543 68.4787 18.5085 64.1932 19.6333 62.4586C20.8604 60.724 24.1326 56.9487 26.9958 53.8876C30.0635 50.6225 34.665 47.2553 38.3463 45.5207C42.1298 43.6841 46.1178 42.5617 48.8787 42.5617C52.151 42.5617 53.4803 42.0515 54.7074 40.3169C55.5254 38.9905 56.2412 35.7254 56.2412 32.8684C56.2412 30.1134 56.8548 25.4198 57.6728 22.6648C58.3886 19.9099 59.9225 15.7264 61.0473 13.4817C62.1721 11.2369 64.3195 7.86972 65.6488 5.93105C67.0804 4.09441 69.7391 1.84964 71.682 1.13539C73.6249 0.421142 75.8745 -0.0890343 76.6926 0.013001V0.013001ZM70.4549 9.50228C68.512 11.645 65.9556 16.0325 64.7285 19.0936C63.6037 22.1547 62.3766 28.0727 61.9676 32.1541C61.6608 36.1335 60.7405 40.7251 59.9225 42.2556C59.2067 43.8882 57.2638 45.6228 55.6277 46.337C53.9916 46.9492 50.6171 47.7655 48.0607 48.0716C45.5043 48.3777 40.9027 50.2144 37.835 52.051C34.665 53.8876 30.1657 57.867 27.4048 61.4382C24.6439 64.8054 20.6559 71.2336 18.5085 75.7232C16.3611 80.2127 13.4979 87.3552 12.2708 91.5386C11.0437 95.7221 9.30537 102.66 8.58957 106.844C7.77151 111.027 6.64669 119.7 6.13541 126.027C5.52187 132.863 5.52187 140.005 6.03315 143.781C6.54443 147.352 7.97603 152.556 9.30537 155.311C10.6347 158.168 14.4182 163.269 17.8949 166.637C22.1897 171.024 26.3822 174.085 31.6996 176.636C35.8921 178.677 42.6411 181.024 46.5268 181.84C50.4126 182.656 55.9345 183.268 58.7976 183.268C61.5586 183.166 65.0353 182.86 66.3646 182.554C67.694 182.146 69.0233 181.432 69.2278 180.82C69.4323 180.207 66.2624 179.901 60.6383 180.105C54.6392 180.377 49.4241 179.935 44.993 178.779C41.3117 177.86 36.3012 175.922 33.7447 174.493C31.1883 172.963 27.2003 169.902 24.7461 167.657C22.292 165.31 20.3491 162.861 20.4514 162.249C20.4514 161.535 19.9401 160.821 19.4288 160.617C18.8152 160.514 17.2814 157.658 15.8498 154.29C14.2137 150.311 13.2934 146.128 13.2934 142.25C13.2934 137.352 13.6002 136.23 15.543 134.904C16.8724 134.087 19.2243 133.373 20.9626 133.373C22.701 133.373 24.9507 134.087 26.0755 134.904C27.5071 136.026 30.7793 136.434 37.017 136.434H46.0155C46.0155 94.1916 46.3223 88.8857 47.5494 86.4369C48.3675 84.7023 50.6171 82.6616 52.6622 81.8453C54.8096 80.927 57.3661 80.6209 59.0022 80.927C60.6383 81.3351 62.4789 82.0494 63.0924 82.4575C63.9105 83.0697 66.2624 82.4575 69.2278 80.8249C71.9888 79.4985 75.0565 77.5598 76.2836 76.5395C77.4084 75.5191 78.9422 73.6825 79.5558 72.4581C80.2716 71.1316 80.7829 68.0705 80.7829 65.5196C80.7829 62.9688 80.1693 57.765 79.4535 53.8876C78.6355 48.9899 78.5332 45.9289 79.249 43.9902C79.9648 42.0515 82.1122 40.2149 85.8957 38.1742C88.9634 36.5416 92.1334 34.705 92.8492 34.0928C93.565 33.3785 94.0762 31.95 93.8717 30.8277C93.6672 29.7053 92.5424 28.5829 91.1108 28.2768C89.5769 27.9707 87.6341 26.032 85.8957 23.175C83.4415 18.9916 82.828 18.5834 78.9422 18.3794L74.6474 18.0732L74.1362 5.52291L70.4549 9.50228ZM51.8442 89.6L52.151 136.434C62.3766 136.434 65.3421 136.128 65.3421 135.618C65.3421 135.21 64.7285 134.087 64.115 133.169C63.3992 132.149 61.4563 131.026 59.8202 130.516L56.7525 129.7C56.3435 102.967 56.6503 94.4977 57.366 92.0488C57.9796 89.804 58.3886 87.7633 58.3886 87.4572C58.2864 87.1511 57.8773 86.845 57.4683 86.641C57.0593 86.5389 55.5254 87.1511 54.1961 87.9674L51.8442 89.6ZM29.1432 101.742C30.8815 101.742 33.7447 102.66 35.5854 103.783C37.426 104.905 39.5734 107.456 40.3914 109.395C41.2095 111.436 41.9253 115.517 41.9253 118.578C41.9253 124.19 41.9253 124.19 38.8576 124.19C35.7899 124.19 35.7899 124.19 35.7899 118.578C35.7899 115.517 35.3808 112.048 34.7673 110.925C34.256 109.803 32.8244 108.477 31.6996 107.864C30.5748 107.354 28.5296 107.15 27.098 107.354C25.5642 107.66 23.9281 109.191 23.0078 110.925C22.0875 112.864 20.6559 113.986 19.4288 113.986C18.304 113.986 17.1791 113.68 16.9746 113.272C16.7701 112.864 17.2814 110.925 18.2017 108.987C19.2243 107.048 21.3717 104.599 23.0078 103.579C24.7461 102.66 27.5071 101.742 29.1432 101.742Z" fill="#CDB03C"/>
</svg>
